<svg width="128" height="128" viewBox="0 0 128 128" fill="none" xmlns="http://www.w3.org/2000/svg">
  <!-- Background Rounded Square -->
  <rect x="8" y="8" width="112" height="112" rx="34" fill="#0A1210"/>
  <rect x="8" y="8" width="112" height="112" rx="34" stroke="#062E20" stroke-width="2"/>
  
  <!-- Isometric Cubes Group -->
  <g transform="translate(38, 38) scale(0.68)">
    <g transform="translate(0, 24)">
      <path d="M0 8 L16 0 L32 8 L16 16 Z" fill="none" stroke="#10B981" stroke-width="3" stroke-linejoin="round"/>
      <path d="M0 8 V24 L16 32 V16 Z" fill="none" stroke="#10B981" stroke-width="3" stroke-linejoin="round"/>
      <path d="M16 16 V32 L32 24 V8 Z" fill="none" stroke="#10B981" stroke-width="3" stroke-linejoin="round"/>
    </g>
    <g transform="translate(32, 24)">
      <path d="M0 8 L16 0 L32 8 L16 16 Z" fill="none" stroke="#10B981" stroke-width="3" stroke-linejoin="round"/>
      <path d="M0 8 V24 L16 32 V16 Z" fill="none" stroke="#10B981" stroke-width="3" stroke-linejoin="round"/>
      <path d="M16 16 V32 L32 24 V8 Z" fill="none" stroke="#10B981" stroke-width="3" stroke-linejoin="round"/>
    </g>
    <g transform="translate(16, 0)">
      <path d="M0 8 L16 0 L32 8 L16 16 Z" fill="none" stroke="#10B981" stroke-width="3" stroke-linejoin="round"/>
      <path d="M0 8 V24 L16 32 V16 Z" fill="none" stroke="#10B981" stroke-width="3" stroke-linejoin="round"/>
      <path d="M16 16 V32 L32 24 V8 Z" fill="none" stroke="#10B981" stroke-width="3" stroke-linejoin="round"/>
    </g>
  </g>
</svg>
